{
    "asset" : {
        "generator" : "Khronos glTF Blender I/O v1.5.17",
        "version" : "2.0"
    },
    "scene" : 0,
    "scenes" : [
        {
            "name" : "Scene",
            "nodes" : [
                11
            ]
        }
    ],
    "nodes" : [
        {
            "mesh" : 0,
            "name" : "ob0216_00_balllowerSkin"
        },
        {
            "mesh" : 1,
            "name" : "ob0216_00_ballupperSkin"
        },
        {
            "name" : "LowerParts",
            "rotation" : [
                0,
                -0.002713319379836321,
                0,
                0.9999963045120239
            ],
            "translation" : [
                0.0013734926469624043,
                -4.204316139221191,
                -0.022807756438851357
            ]
        },
        {
            "name" : "UpperParts",
            "rotation" : [
                0,
                -0.7090117931365967,
                0,
                0.7051966190338135
            ],
            "translation" : [
                0.021420489996671677,
                -0.26555123925209045,
                -3.947086811065674
            ]
        },
        {
            "children" : [
                2,
                3
            ],
            "name" : "Waist",
            "rotation" : [
                0,
                0.7090200781822205,
                0,
                0.7051883339881897
            ],
            "translation" : [
                -7.622690463904291e-05,
                -0.012099971994757652,
                -2.904978757545251e-10
            ]
        },
        {
            "children" : [
                4
            ],
            "name" : "Offset_Node",
            "rotation" : [
                0,
                -0.7071040272712708,
                0,
                0.7071095108985901
            ]
        },
        {
            "children" : [
                5
            ],
            "name" : "loc_attach"
        },
        {
            "children" : [
                6
            ],
            "name" : "Origin"
        },
        {
            "name" : "ob0216_00_ballupperSkin"
        },
        {
            "name" : "ob0216_00_balllowerSkin"
        },
        {
            "children" : [
                7,
                8,
                9
            ],
            "name" : "ob0216_00",
            "rotation" : [
                -0.7071068286895752,
                0,
                0,
                0.7071068286895752
            ]
        },
        {
            "children" : [
                0,
                1,
                10
            ],
            "name" : "Armature"
        }
    ],
    "materials" : [
        {
            "doubleSided" : true,
            "name" : "obj01",
            "pbrMetallicRoughness" : {
                "baseColorFactor" : [
                    0.800000011920929,
                    0.800000011920929,
                    0.800000011920929,
                    0
                ],
                "baseColorTexture" : {
                    "index" : 0
                },
                "metallicFactor" : 0,
                "roughnessFactor" : 0.5
            }
        },
        {
            "doubleSided" : true,
            "name" : "obj00",
            "pbrMetallicRoughness" : {
                "baseColorFactor" : [
                    0.800000011920929,
                    0.800000011920929,
                    0.800000011920929,
                    0
                ],
                "baseColorTexture" : {
                    "index" : 1
                },
                "metallicFactor" : 0,
                "roughnessFactor" : 0.5
            }
        }
    ],
    "meshes" : [
        {
            "name" : "ob0216_00_balllowerSkin",
            "primitives" : [
                {
                    "attributes" : {
                        "POSITION" : 0,
                        "NORMAL" : 1,
                        "TEXCOORD_0" : 2
                    },
                    "indices" : 3,
                    "material" : 0
                },
                {
                    "attributes" : {
                        "POSITION" : 4,
                        "NORMAL" : 5,
                        "TEXCOORD_0" : 6
                    },
                    "indices" : 7,
                    "material" : 1
                }
            ]
        },
        {
            "name" : "ob0216_00_ballupperSkin",
            "primitives" : [
                {
                    "attributes" : {
                        "POSITION" : 8,
                        "NORMAL" : 9,
                        "TEXCOORD_0" : 10
                    },
                    "indices" : 11,
                    "material" : 0
                },
                {
                    "attributes" : {
                        "POSITION" : 12,
                        "NORMAL" : 13,
                        "TEXCOORD_0" : 14
                    },
                    "indices" : 15,
                    "material" : 1
                }
            ]
        }
    ],
    "textures" : [
        {
            "sampler" : 0,
            "source" : 0
        },
        {
            "sampler" : 0,
            "source" : 0
        }
    ],
    "images" : [
        {
            "bufferView" : 4,
            "mimeType" : "image/png",
            "name" : "ob0216_00_obj_col"
        }
    ],
    "accessors" : [
        {
            "bufferView" : 0,
            "componentType" : 5126,
            "count" : 213,
            "max" : [
                3.8451669216156006,
                3.946678876876831,
                3.6894729137420654
            ],
            "min" : [
                -3.8451669216156006,
                -3.7881078720092773,
                -0.09965585917234421
            ],
            "type" : "VEC3"
        },
        {
            "bufferView" : 1,
            "componentType" : 5126,
            "count" : 213,
            "type" : "VEC3"
        },
        {
            "bufferView" : 2,
            "componentType" : 5126,
            "count" : 213,
            "type" : "VEC2"
        },
        {
            "bufferView" : 3,
            "componentType" : 5123,
            "count" : 420,
            "type" : "SCALAR"
        },
        {
            "bufferView" : 5,
            "componentType" : 5126,
            "count" : 282,
            "max" : [
                4.0238142013549805,
                3.94862699508667,
                4.216413974761963
            ],
            "min" : [
                -4.0238118171691895,
                -3.983349084854126,
                -0.09965585917234421
            ],
            "type" : "VEC3"
        },
        {
            "bufferView" : 6,
            "componentType" : 5126,
            "count" : 282,
            "type" : "VEC3"
        },
        {
            "bufferView" : 7,
            "componentType" : 5126,
            "count" : 282,
            "type" : "VEC2"
        },
        {
            "bufferView" : 8,
            "componentType" : 5123,
            "count" : 1224,
            "type" : "SCALAR"
        },
        {
            "bufferView" : 9,
            "componentType" : 5126,
            "count" : 225,
            "max" : [
                3.8451669216156006,
                3.94862699508667,
                1.2504140138626099
            ],
            "min" : [
                -3.8451669216156006,
                -3.7881078720092773,
                -3.7683770656585693
            ],
            "type" : "VEC3"
        },
        {
            "bufferView" : 10,
            "componentType" : 5126,
            "count" : 225,
            "type" : "VEC3"
        },
        {
            "bufferView" : 11,
            "componentType" : 5126,
            "count" : 225,
            "type" : "VEC2"
        },
        {
            "bufferView" : 12,
            "componentType" : 5123,
            "count" : 453,
            "type" : "SCALAR"
        },
        {
            "bufferView" : 13,
            "componentType" : 5126,
            "count" : 360,
            "max" : [
                3.9857609272003174,
                3.9544198513031006,
                1.2504140138626099
            ],
            "min" : [
                -3.9857609272003174,
                -3.926560878753662,
                -4.2692999839782715
            ],
            "type" : "VEC3"
        },
        {
            "bufferView" : 14,
            "componentType" : 5126,
            "count" : 360,
            "type" : "VEC3"
        },
        {
            "bufferView" : 15,
            "componentType" : 5126,
            "count" : 360,
            "type" : "VEC2"
        },
        {
            "bufferView" : 16,
            "componentType" : 5123,
            "count" : 1395,
            "type" : "SCALAR"
        }
    ],
    "bufferViews" : [
        {
            "buffer" : 0,
            "byteLength" : 2556,
            "byteOffset" : 0
        },
        {
            "buffer" : 0,
            "byteLength" : 2556,
            "byteOffset" : 2556
        },
        {
            "buffer" : 0,
            "byteLength" : 1704,
            "byteOffset" : 5112
        },
        {
            "buffer" : 0,
            "byteLength" : 840,
            "byteOffset" : 6816
        },
        {
            "buffer" : 0,
            "byteLength" : 138275,
            "byteOffset" : 7656
        },
        {
            "buffer" : 0,
            "byteLength" : 3384,
            "byteOffset" : 145932
        },
        {
            "buffer" : 0,
            "byteLength" : 3384,
            "byteOffset" : 149316
        },
        {
            "buffer" : 0,
            "byteLength" : 2256,
            "byteOffset" : 152700
        },
        {
            "buffer" : 0,
            "byteLength" : 2448,
            "byteOffset" : 154956
        },
        {
            "buffer" : 0,
            "byteLength" : 2700,
            "byteOffset" : 157404
        },
        {
            "buffer" : 0,
            "byteLength" : 2700,
            "byteOffset" : 160104
        },
        {
            "buffer" : 0,
            "byteLength" : 1800,
            "byteOffset" : 162804
        },
        {
            "buffer" : 0,
            "byteLength" : 906,
            "byteOffset" : 164604
        },
        {
            "buffer" : 0,
            "byteLength" : 4320,
            "byteOffset" : 165512
        },
        {
            "buffer" : 0,
            "byteLength" : 4320,
            "byteOffset" : 169832
        },
        {
            "buffer" : 0,
            "byteLength" : 2880,
            "byteOffset" : 174152
        },
        {
            "buffer" : 0,
            "byteLength" : 2790,
            "byteOffset" : 177032
        }
    ],
    "samplers" : [
        {
            "magFilter" : 9729,
            "minFilter" : 9987
        }
    ],
    "buffers" : [
        {
            "byteLength" : 179824,
            "uri" : "data:application/octet-stream;base64,"
        }
    ]
}
