{
    "asset" : {
        "generator" : "Khronos glTF Blender I/O v1.5.17",
        "version" : "2.0"
    },
    "scene" : 0,
    "scenes" : [
        {
            "name" : "Scene",
            "nodes" : [
                0,
                1,
                2
            ]
        }
    ],
    "nodes" : [
        {
            "mesh" : 0,
            "name" : "sky",
            "rotation" : [
                0.7071068286895752,
                0,
                0,
                0.7071067094802856
            ]
        },
        {
            "mesh" : 1,
            "name" : "cloud",
            "rotation" : [
                0.7071068286895752,
                0,
                0,
                0.7071067094802856
            ]
        },
        {
            "mesh" : 2,
            "name" : "stadium",
            "rotation" : [
                0.7071068286895752,
                0,
                0,
                0.7071067094802856
            ]
        }
    ],
    "materials" : [
        {
            "doubleSided" : true,
            "name" : "spa_sky00.png",
            "pbrMetallicRoughness" : {
                "baseColorTexture" : {
                    "index" : 0
                },
                "metallicFactor" : 0,
                "roughnessFactor" : 0.6732679605484009
            }
        },
        {
            "alphaMode" : "BLEND",
            "doubleSided" : true,
            "name" : "spa_cloud00.png",
            "pbrMetallicRoughness" : {
                "baseColorTexture" : {
                    "index" : 1
                },
                "metallicFactor" : 0,
                "roughnessFactor" : 0.6732679605484009
            }
        },
        {
            "doubleSided" : true,
            "name" : "spa_kusa01.png",
            "pbrMetallicRoughness" : {
                "baseColorTexture" : {
                    "index" : 2
                },
                "metallicFactor" : 0,
                "roughnessFactor" : 0.6732679605484009
            }
        },
        {
            "doubleSided" : true,
            "name" : "spa_prop01.png",
            "pbrMetallicRoughness" : {
                "baseColorTexture" : {
                    "index" : 3
                },
                "metallicFactor" : 0,
                "roughnessFactor" : 0.6732679605484009
            }
        },
        {
            "doubleSided" : true,
            "name" : "spa_roof00.png",
            "pbrMetallicRoughness" : {
                "baseColorTexture" : {
                    "index" : 4
                },
                "metallicFactor" : 0,
                "roughnessFactor" : 0.6732679605484009
            }
        },
        {
            "doubleSided" : true,
            "name" : "spa_stadium00.png",
            "pbrMetallicRoughness" : {
                "baseColorTexture" : {
                    "index" : 5
                },
                "metallicFactor" : 0,
                "roughnessFactor" : 0.6732679605484009
            }
        },
        {
            "doubleSided" : true,
            "name" : "spa_whiteline.png",
            "pbrMetallicRoughness" : {
                "baseColorTexture" : {
                    "index" : 6
                },
                "metallicFactor" : 0,
                "roughnessFactor" : 0.6732679605484009
            }
        },
        {
            "doubleSided" : true,
            "name" : "spa_ground00.png",
            "pbrMetallicRoughness" : {
                "baseColorTexture" : {
                    "index" : 7
                },
                "metallicFactor" : 0,
                "roughnessFactor" : 0.6732679605484009
            }
        },
        {
            "doubleSided" : true,
            "name" : "spa_kyaku.png",
            "pbrMetallicRoughness" : {
                "baseColorTexture" : {
                    "index" : 8
                },
                "metallicFactor" : 0,
                "roughnessFactor" : 0.6732679605484009
            }
        },
        {
            "doubleSided" : true,
            "name" : "spa_black.png",
            "pbrMetallicRoughness" : {
                "baseColorTexture" : {
                    "index" : 9
                },
                "metallicFactor" : 0,
                "roughnessFactor" : 0.6732679605484009
            }
        }
    ],
    "meshes" : [
        {
            "name" : "sky",
            "primitives" : [
                {
                    "attributes" : {
                        "POSITION" : 0,
                        "NORMAL" : 1,
                        "TEXCOORD_0" : 2
                    },
                    "indices" : 3,
                    "material" : 0
                }
            ]
        },
        {
            "name" : "cloud",
            "primitives" : [
                {
                    "attributes" : {
                        "POSITION" : 4,
                        "NORMAL" : 5,
                        "TEXCOORD_0" : 6
                    },
                    "indices" : 7,
                    "material" : 1
                }
            ]
        },
        {
            "name" : "stadium",
            "primitives" : [
                {
                    "attributes" : {
                        "POSITION" : 8,
                        "NORMAL" : 9,
                        "TEXCOORD_0" : 10
                    },
                    "indices" : 11,
                    "material" : 2
                },
                {
                    "attributes" : {
                        "POSITION" : 12,
                        "NORMAL" : 13,
                        "TEXCOORD_0" : 14
                    },
                    "indices" : 15,
                    "material" : 3
                },
                {
                    "attributes" : {
                        "POSITION" : 16,
                        "NORMAL" : 17,
                        "TEXCOORD_0" : 18
                    },
                    "indices" : 19,
                    "material" : 4
                },
                {
                    "attributes" : {
                        "POSITION" : 20,
                        "NORMAL" : 21,
                        "TEXCOORD_0" : 22
                    },
                    "indices" : 23,
                    "material" : 5
                },
                {
                    "attributes" : {
                        "POSITION" : 24,
                        "NORMAL" : 25,
                        "TEXCOORD_0" : 26
                    },
                    "indices" : 27,
                    "material" : 6
                },
                {
                    "attributes" : {
                        "POSITION" : 28,
                        "NORMAL" : 29,
                        "TEXCOORD_0" : 30
                    },
                    "indices" : 31,
                    "material" : 7
                },
                {
                    "attributes" : {
                        "POSITION" : 32,
                        "NORMAL" : 33,
                        "TEXCOORD_0" : 34
                    },
                    "indices" : 19,
                    "material" : 8
                },
                {
                    "attributes" : {
                        "POSITION" : 35,
                        "NORMAL" : 36,
                        "TEXCOORD_0" : 37
                    },
                    "indices" : 38,
                    "material" : 9
                }
            ]
        }
    ],
    "textures" : [
        {
            "sampler" : 0,
            "source" : 0
        },
        {
            "sampler" : 0,
            "source" : 1
        },
        {
            "sampler" : 0,
            "source" : 2
        },
        {
            "sampler" : 0,
            "source" : 3
        },
        {
            "sampler" : 0,
            "source" : 4
        },
        {
            "sampler" : 0,
            "source" : 5
        },
        {
            "sampler" : 0,
            "source" : 6
        },
        {
            "sampler" : 0,
            "source" : 7
        },
        {
            "sampler" : 0,
            "source" : 8
        },
        {
            "sampler" : 0,
            "source" : 9
        }
    ],
    "images" : [
        {
            "bufferView" : 4,
            "mimeType" : "image/png",
            "name" : "spa_sky00"
        },
        {
            "bufferView" : 9,
            "mimeType" : "image/png",
            "name" : "spa_cloud00"
        },
        {
            "bufferView" : 14,
            "mimeType" : "image/png",
            "name" : "spa_kusa01"
        },
        {
            "bufferView" : 19,
            "mimeType" : "image/png",
            "name" : "spa_prop01"
        },
        {
            "bufferView" : 24,
            "mimeType" : "image/png",
            "name" : "spa_roof00"
        },
        {
            "bufferView" : 29,
            "mimeType" : "image/png",
            "name" : "spa_stadium00"
        },
        {
            "bufferView" : 34,
            "mimeType" : "image/png",
            "name" : "spa_whiteline"
        },
        {
            "bufferView" : 39,
            "mimeType" : "image/png",
            "name" : "spa_ground00"
        },
        {
            "bufferView" : 43,
            "mimeType" : "image/png",
            "name" : "spa_kyaku"
        },
        {
            "bufferView" : 48,
            "mimeType" : "image/png",
            "name" : "spa_black"
        }
    ],
    "accessors" : [
        {
            "bufferView" : 0,
            "componentType" : 5126,
            "count" : 1140,
            "max" : [
                20.737829208374023,
                20.737829208374023,
                3.000000106112566e-06
            ],
            "min" : [
                -20.737829208374023,
                -20.737829208374023,
                -20.737829208374023
            ],
            "type" : "VEC3"
        },
        {
            "bufferView" : 1,
            "componentType" : 5126,
            "count" : 1140,
            "type" : "VEC3"
        },
        {
            "bufferView" : 2,
            "componentType" : 5126,
            "count" : 1140,
            "type" : "VEC2"
        },
        {
            "bufferView" : 3,
            "componentType" : 5123,
            "count" : 1140,
            "type" : "SCALAR"
        },
        {
            "bufferView" : 5,
            "componentType" : 5126,
            "count" : 192,
            "max" : [
                13.844491958618164,
                -3.7287559509277344,
                -1.795017957687378
            ],
            "min" : [
                -10.152565002441406,
                -16.632654190063477,
                -6.83319616317749
            ],
            "type" : "VEC3"
        },
        {
            "bufferView" : 6,
            "componentType" : 5126,
            "count" : 192,
            "type" : "VEC3"
        },
        {
            "bufferView" : 7,
            "componentType" : 5126,
            "count" : 192,
            "type" : "VEC2"
        },
        {
            "bufferView" : 8,
            "componentType" : 5123,
            "count" : 192,
            "type" : "SCALAR"
        },
        {
            "bufferView" : 10,
            "componentType" : 5126,
            "count" : 96,
            "max" : [
                4.778687953948975,
                7.790359020233154,
                0.1551789939403534
            ],
            "min" : [
                -4.778687953948975,
                -7.790359020233154,
                0.1057789996266365
            ],
            "type" : "VEC3"
        },
        {
            "bufferView" : 11,
            "componentType" : 5126,
            "count" : 96,
            "type" : "VEC3"
        },
        {
            "bufferView" : 12,
            "componentType" : 5126,
            "count" : 96,
            "type" : "VEC2"
        },
        {
            "bufferView" : 13,
            "componentType" : 5123,
            "count" : 96,
            "type" : "SCALAR"
        },
        {
            "bufferView" : 15,
            "componentType" : 5126,
            "count" : 216,
            "max" : [
                9.84929370880127,
                10.024259567260742,
                -0.1752990037202835
            ],
            "min" : [
                -9.992484092712402,
                -10.024259567260742,
                -2.0924460887908936
            ],
            "type" : "VEC3"
        },
        {
            "bufferView" : 16,
            "componentType" : 5126,
            "count" : 216,
            "type" : "VEC3"
        },
        {
            "bufferView" : 17,
            "componentType" : 5126,
            "count" : 216,
            "type" : "VEC2"
        },
        {
            "bufferView" : 18,
            "componentType" : 5123,
            "count" : 216,
            "type" : "SCALAR"
        },
        {
            "bufferView" : 20,
            "componentType" : 5126,
            "count" : 288,
            "max" : [
                14.345660209655762,
                14.345661163330078,
                -2.374850034713745
            ],
            "min" : [
                -14.345660209655762,
                -14.345659255981445,
                -4.480142116546631
            ],
            "type" : "VEC3"
        },
        {
            "bufferView" : 21,
            "componentType" : 5126,
            "count" : 288,
            "type" : "VEC3"
        },
        {
            "bufferView" : 22,
            "componentType" : 5126,
            "count" : 288,
            "type" : "VEC2"
        },
        {
            "bufferView" : 23,
            "componentType" : 5123,
            "count" : 288,
            "type" : "SCALAR"
        },
        {
            "bufferView" : 25,
            "componentType" : 5126,
            "count" : 3852,
            "max" : [
                14.248600006103516,
                14.226333618164062,
                0.21495899558067322
            ],
            "min" : [
                -14.248600006103516,
                -14.226333618164062,
                -5.529026985168457
            ],
            "type" : "VEC3"
        },
        {
            "bufferView" : 26,
            "componentType" : 5126,
            "count" : 3852,
            "type" : "VEC3"
        },
        {
            "bufferView" : 27,
            "componentType" : 5126,
            "count" : 3852,
            "type" : "VEC2"
        },
        {
            "bufferView" : 28,
            "componentType" : 5123,
            "count" : 3852,
            "type" : "SCALAR"
        },
        {
            "bufferView" : 30,
            "componentType" : 5126,
            "count" : 600,
            "max" : [
                3.3725268840789795,
                6.282179832458496,
                0.08252900093793869
            ],
            "min" : [
                -3.373892068862915,
                -6.282179832458496,
                0.08252699673175812
            ],
            "type" : "VEC3"
        },
        {
            "bufferView" : 31,
            "componentType" : 5126,
            "count" : 600,
            "type" : "VEC3"
        },
        {
            "bufferView" : 32,
            "componentType" : 5126,
            "count" : 600,
            "type" : "VEC2"
        },
        {
            "bufferView" : 33,
            "componentType" : 5123,
            "count" : 600,
            "type" : "SCALAR"
        },
        {
            "bufferView" : 35,
            "componentType" : 5126,
            "count" : 336,
            "max" : [
                14.798481941223145,
                14.798481941223145,
                0.1722559928894043
            ],
            "min" : [
                -14.798481941223145,
                -14.798481941223145,
                -2.424712896347046
            ],
            "type" : "VEC3"
        },
        {
            "bufferView" : 36,
            "componentType" : 5126,
            "count" : 336,
            "type" : "VEC3"
        },
        {
            "bufferView" : 37,
            "componentType" : 5126,
            "count" : 336,
            "type" : "VEC2"
        },
        {
            "bufferView" : 38,
            "componentType" : 5123,
            "count" : 336,
            "type" : "SCALAR"
        },
        {
            "bufferView" : 40,
            "componentType" : 5126,
            "count" : 288,
            "max" : [
                12.253608703613281,
                12.253596305847168,
                -0.08452299982309341
            ],
            "min" : [
                -12.253608703613281,
                -12.253596305847168,
                -2.424712896347046
            ],
            "type" : "VEC3"
        },
        {
            "bufferView" : 41,
            "componentType" : 5126,
            "count" : 288,
            "type" : "VEC3"
        },
        {
            "bufferView" : 42,
            "componentType" : 5126,
            "count" : 288,
            "type" : "VEC2"
        },
        {
            "bufferView" : 44,
            "componentType" : 5126,
            "count" : 360,
            "max" : [
                4.136149883270264,
                6.03967809677124,
                0.08903200179338455
            ],
            "min" : [
                -4.136149883270264,
                -6.03967809677124,
                0.08903100341558456
            ],
            "type" : "VEC3"
        },
        {
            "bufferView" : 45,
            "componentType" : 5126,
            "count" : 360,
            "type" : "VEC3"
        },
        {
            "bufferView" : 46,
            "componentType" : 5126,
            "count" : 360,
            "type" : "VEC2"
        },
        {
            "bufferView" : 47,
            "componentType" : 5123,
            "count" : 360,
            "type" : "SCALAR"
        }
    ],
    "bufferViews" : [
        {
            "buffer" : 0,
            "byteLength" : 13680,
            "byteOffset" : 0
        },
        {
            "buffer" : 0,
            "byteLength" : 13680,
            "byteOffset" : 13680
        },
        {
            "buffer" : 0,
            "byteLength" : 9120,
            "byteOffset" : 27360
        },
        {
            "buffer" : 0,
            "byteLength" : 2280,
            "byteOffset" : 36480
        },
        {
            "buffer" : 0,
            "byteLength" : 572,
            "byteOffset" : 38760
        },
        {
            "buffer" : 0,
            "byteLength" : 2304,
            "byteOffset" : 39332
        },
        {
            "buffer" : 0,
            "byteLength" : 2304,
            "byteOffset" : 41636
        },
        {
            "buffer" : 0,
            "byteLength" : 1536,
            "byteOffset" : 43940
        },
        {
            "buffer" : 0,
            "byteLength" : 384,
            "byteOffset" : 45476
        },
        {
            "buffer" : 0,
            "byteLength" : 6412,
            "byteOffset" : 45860
        },
        {
            "buffer" : 0,
            "byteLength" : 1152,
            "byteOffset" : 52272
        },
        {
            "buffer" : 0,
            "byteLength" : 1152,
            "byteOffset" : 53424
        },
        {
            "buffer" : 0,
            "byteLength" : 768,
            "byteOffset" : 54576
        },
        {
            "buffer" : 0,
            "byteLength" : 192,
            "byteOffset" : 55344
        },
        {
            "buffer" : 0,
            "byteLength" : 5821,
            "byteOffset" : 55536
        },
        {
            "buffer" : 0,
            "byteLength" : 2592,
            "byteOffset" : 61360
        },
        {
            "buffer" : 0,
            "byteLength" : 2592,
            "byteOffset" : 63952
        },
        {
            "buffer" : 0,
            "byteLength" : 1728,
            "byteOffset" : 66544
        },
        {
            "buffer" : 0,
            "byteLength" : 432,
            "byteOffset" : 68272
        },
        {
            "buffer" : 0,
            "byteLength" : 12905,
            "byteOffset" : 68704
        },
        {
            "buffer" : 0,
            "byteLength" : 3456,
            "byteOffset" : 81612
        },
        {
            "buffer" : 0,
            "byteLength" : 3456,
            "byteOffset" : 85068
        },
        {
            "buffer" : 0,
            "byteLength" : 2304,
            "byteOffset" : 88524
        },
        {
            "buffer" : 0,
            "byteLength" : 576,
            "byteOffset" : 90828
        },
        {
            "buffer" : 0,
            "byteLength" : 5536,
            "byteOffset" : 91404
        },
        {
            "buffer" : 0,
            "byteLength" : 46224,
            "byteOffset" : 96940
        },
        {
            "buffer" : 0,
            "byteLength" : 46224,
            "byteOffset" : 143164
        },
        {
            "buffer" : 0,
            "byteLength" : 30816,
            "byteOffset" : 189388
        },
        {
            "buffer" : 0,
            "byteLength" : 7704,
            "byteOffset" : 220204
        },
        {
            "buffer" : 0,
            "byteLength" : 6322,
            "byteOffset" : 227908
        },
        {
            "buffer" : 0,
            "byteLength" : 7200,
            "byteOffset" : 234232
        },
        {
            "buffer" : 0,
            "byteLength" : 7200,
            "byteOffset" : 241432
        },
        {
            "buffer" : 0,
            "byteLength" : 4800,
            "byteOffset" : 248632
        },
        {
            "buffer" : 0,
            "byteLength" : 1200,
            "byteOffset" : 253432
        },
        {
            "buffer" : 0,
            "byteLength" : 1759,
            "byteOffset" : 254632
        },
        {
            "buffer" : 0,
            "byteLength" : 4032,
            "byteOffset" : 256392
        },
        {
            "buffer" : 0,
            "byteLength" : 4032,
            "byteOffset" : 260424
        },
        {
            "buffer" : 0,
            "byteLength" : 2688,
            "byteOffset" : 264456
        },
        {
            "buffer" : 0,
            "byteLength" : 672,
            "byteOffset" : 267144
        },
        {
            "buffer" : 0,
            "byteLength" : 2620,
            "byteOffset" : 267816
        },
        {
            "buffer" : 0,
            "byteLength" : 3456,
            "byteOffset" : 270436
        },
        {
            "buffer" : 0,
            "byteLength" : 3456,
            "byteOffset" : 273892
        },
        {
            "buffer" : 0,
            "byteLength" : 2304,
            "byteOffset" : 277348
        },
        {
            "buffer" : 0,
            "byteLength" : 4440,
            "byteOffset" : 279652
        },
        {
            "buffer" : 0,
            "byteLength" : 4320,
            "byteOffset" : 284092
        },
        {
            "buffer" : 0,
            "byteLength" : 4320,
            "byteOffset" : 288412
        },
        {
            "buffer" : 0,
            "byteLength" : 2880,
            "byteOffset" : 292732
        },
        {
            "buffer" : 0,
            "byteLength" : 720,
            "byteOffset" : 295612
        },
        {
            "buffer" : 0,
            "byteLength" : 194,
            "byteOffset" : 296332
        }
    ],
    "samplers" : [
        {
            "magFilter" : 9729,
            "minFilter" : 9987
        }
    ],
    "buffers" : [
        {
            "byteLength" : 296528,
            "uri" : "data:application/octet-stream;base64,"
        }
    ]
}
