{
    "asset" : {
        "generator" : "Khronos glTF Blender I/O v1.4.40",
        "version" : "2.0"
    },
    "scene" : 0,
    "scenes" : [
        {
            "name" : "Scene",
            "nodes" : [
                0,
                1
            ]
        }
    ],
    "nodes" : [
        {
            "mesh" : 0,
            "name" : "arming_sword_2_Cube.003",
            "rotation" : [
                0.7071068286895752,
                0,
                0,
                0.7071067094802856
            ],
            "translation" : [
                0.19999998807907104,
                3.880343683704268e-06,
                -0.2337833195924759
            ]
        },
        {
            "mesh" : 1,
            "name" : "arming_sword_2_scabbard_Cube.014",
            "rotation" : [
                0.7071068286895752,
                0,
                0,
                0.7071067094802856
            ],
            "translation" : [
                0.20526079833507538,
                0.0002259309694636613,
                -0.3231918513774872
            ]
        }
    ],
    "materials" : [
        {
            "doubleSided" : true,
            "name" : "arming_sword_2",
            "pbrMetallicRoughness" : {
                "baseColorFactor" : [
                    0.6399999856948853,
                    0.6399999856948853,
                    0.6399999856948853,
                    1
                ],
                "metallicFactor" : 0,
                "roughnessFactor" : 0.5
            }
        },
        {
            "doubleSided" : true,
            "name" : "arming_sword_2_scabbard",
            "pbrMetallicRoughness" : {
                "baseColorFactor" : [
                    0.6399999856948853,
                    0.6399999856948853,
                    0.6399999856948853,
                    1
                ],
                "metallicFactor" : 0,
                "roughnessFactor" : 0.5
            }
        }
    ],
    "meshes" : [
        {
            "name" : "arming_sword_2_Cube.003",
            "primitives" : [
                {
                    "attributes" : {
                        "POSITION" : 0,
                        "NORMAL" : 1,
                        "TEXCOORD_0" : 2
                    },
                    "indices" : 3,
                    "material" : 0
                }
            ]
        },
        {
            "name" : "arming_sword_2_scabbard_Cube.014",
            "primitives" : [
                {
                    "attributes" : {
                        "POSITION" : 4,
                        "NORMAL" : 5,
                        "TEXCOORD_0" : 6
                    },
                    "indices" : 7,
                    "material" : 1
                }
            ]
        }
    ],
    "accessors" : [
        {
            "bufferView" : 0,
            "componentType" : 5126,
            "count" : 378,
            "max" : [
                0.06198000907897949,
                0.3842962980270386,
                0.014916842803359032
            ],
            "min" : [
                -0.0619799941778183,
                -0.5313196778297424,
                -0.014909157529473305
            ],
            "type" : "VEC3"
        },
        {
            "bufferView" : 1,
            "componentType" : 5126,
            "count" : 378,
            "type" : "VEC3"
        },
        {
            "bufferView" : 2,
            "componentType" : 5126,
            "count" : 378,
            "type" : "VEC2"
        },
        {
            "bufferView" : 3,
            "componentType" : 5123,
            "count" : 1752,
            "type" : "SCALAR"
        },
        {
            "bufferView" : 4,
            "componentType" : 5126,
            "count" : 307,
            "max" : [
                0.13991819322109222,
                0.31271085143089294,
                0.009391878731548786
            ],
            "min" : [
                -0.039851799607276917,
                -0.4574861228466034,
                -0.008940122090280056
            ],
            "type" : "VEC3"
        },
        {
            "bufferView" : 5,
            "componentType" : 5126,
            "count" : 307,
            "type" : "VEC3"
        },
        {
            "bufferView" : 6,
            "componentType" : 5126,
            "count" : 307,
            "type" : "VEC2"
        },
        {
            "bufferView" : 7,
            "componentType" : 5123,
            "count" : 1398,
            "type" : "SCALAR"
        }
    ],
    "bufferViews" : [
        {
            "buffer" : 0,
            "byteLength" : 4536,
            "byteOffset" : 0
        },
        {
            "buffer" : 0,
            "byteLength" : 4536,
            "byteOffset" : 4536
        },
        {
            "buffer" : 0,
            "byteLength" : 3024,
            "byteOffset" : 9072
        },
        {
            "buffer" : 0,
            "byteLength" : 3504,
            "byteOffset" : 12096
        },
        {
            "buffer" : 0,
            "byteLength" : 3684,
            "byteOffset" : 15600
        },
        {
            "buffer" : 0,
            "byteLength" : 3684,
            "byteOffset" : 19284
        },
        {
            "buffer" : 0,
            "byteLength" : 2456,
            "byteOffset" : 22968
        },
        {
            "buffer" : 0,
            "byteLength" : 2796,
            "byteOffset" : 25424
        }
    ],
    "buffers" : [
        {
            "byteLength" : 28220,
            "uri" : "data:application/octet-stream;base64,"
        }
    ]
}
